<mxfile host="app.diagrams.net" modified="2024-04-08T01:53:56.215Z" agent="Mozilla/5.0 (Windows NT 10.0; Win64; x64) AppleWebKit/537.36 (KHTML, like Gecko) Chrome/123.0.0.0 Safari/537.36" version="23.1.2" etag="AqekDtTjp-h1k0ghXiLm" type="github">
  <diagram name="第 1 页" id="7Yn5AF_tDrJ6loeviZgg">
    <mxGraphModel>
      <root>
        <mxCell id="0" />
        <mxCell id="1" parent="0" />
      </root>
    </mxGraphModel>
  </diagram>
</mxfile>
